<svg width="512" height="512" viewBox="0 0 512 512" fill="none" xmlns="http://www.w3.org/2000/svg">
<path fill-rule="evenodd" clip-rule="evenodd" d="M309.376 94.7805C309.269 94.7802 309.162 94.7801 309.055 94.7801C244.229 94.7801 191.645 147.194 191.371 211.956H152.142C152.417 125.529 222.564 55.5518 309.055 55.5518C322.713 55.5518 335.964 57.2969 348.597 60.5763V92.4163H348.604V155.182H348.581L348.437 170.018L304.462 173.551L304.415 173.693C285.007 176.093 269.983 192.642 269.983 212.7C269.983 212.87 269.984 213.04 269.986 213.21H270.054C269.779 256.305 234.759 291.157 191.599 291.157C191.495 291.157 191.391 291.156 191.287 291.156V330.141C191.784 330.147 192.282 330.15 192.78 330.15C257.684 330.15 310.317 277.609 310.465 212.739H349.693C349.545 299.274 279.35 369.378 192.78 369.378C178.696 369.378 165.045 367.522 152.059 364.042V322.914L152.059 322.914V273.739H152.059V251.967H190.895L190.94 251.923C191.159 251.927 191.379 251.928 191.599 251.928C213.094 251.928 230.551 234.64 230.824 213.21H230.835C230.834 213.04 230.833 212.87 230.833 212.7C230.833 169.37 265.959 134.244 309.29 134.244C309.318 134.244 309.347 134.244 309.376 134.244V94.7805Z" fill="#1F2AD6"/>
<path fill-rule="evenodd" clip-rule="evenodd" d="M128 2.23803e-06H51.2L1.14441e-05 0L0 2.23803e-06V51.2V256H51.2L51.2 51.2H128V2.23803e-06ZM512 256V51.2V2.23803e-06L460.8 0L384 2.23803e-06V51.2H460.8L460.8 256H512ZM256 460.8C369.107 460.8 460.799 369.109 460.8 256.002H512C511.999 397.386 397.384 512 256 512C114.616 512 0.00113801 397.386 0 256.002H51.2C51.2011 369.109 142.893 460.8 256 460.8ZM256 8.58307e-06C256.35 8.58307e-06 256.699 0.000710253 257.049 0.00211226H254.951C255.301 0.000710253 255.65 8.58307e-06 256 8.58307e-06Z" fill="#1F2AD6"/>
</svg>
